<svg width="503" height="504" viewBox="0 0 503 504" fill="none" xmlns="http://www.w3.org/2000/svg">
<line x1="285.198" y1="294.236" x2="339.856" y2="239.579" stroke="black" stroke-width="2"/>
<line x1="339.856" y1="240.993" x2="307.054" y2="208.191" stroke="black" stroke-width="2"/>
<path d="M305.911 208.119L364.295 149.735" stroke="black" stroke-width="2"/>
<line x1="364.367" y1="150.877" x2="397.17" y2="183.679" stroke="black" stroke-width="2"/>
<line x1="395.755" y1="183.679" x2="450.413" y2="129.022" stroke="black" stroke-width="2"/>
<line x1="128.679" y1="450.755" x2="183.337" y2="396.098" stroke="black" stroke-width="2"/>
<line x1="183.337" y1="397.512" x2="150.535" y2="364.71" stroke="black" stroke-width="2"/>
<path d="M149.392 364.638L207.776 306.254" stroke="black" stroke-width="2"/>
<line x1="207.848" y1="307.396" x2="240.651" y2="340.198" stroke="black" stroke-width="2"/>
<line x1="239.236" y1="340.198" x2="293.894" y2="285.541" stroke="black" stroke-width="2"/>
<line x1="289.732" y1="289.903" x2="341.972" y2="342.143" stroke="black" stroke-width="2"/>
<line x1="160.953" y1="161.123" x2="213.193" y2="213.364" stroke="black" stroke-width="2"/>
<path d="M136.028 351.274L194.412 292.89" stroke="black" stroke-width="2"/>
<line x1="166.376" y1="320.926" x2="136.004" y2="290.553" stroke="black" stroke-width="2"/>
<path d="M292.547 194.755L350.931 136.371" stroke="black" stroke-width="2"/>
<line x1="322.895" y1="164.407" x2="292.523" y2="134.034" stroke="black" stroke-width="2"/>
<line x1="137.219" y1="290.354" x2="292.496" y2="135.077" stroke="black" stroke-width="2"/>
</svg>
